<svg xmlns="http://www.w3.org/2000/svg" width="453.098" height="453.098" version="1.1" xml:space="preserve"><g><title>Layer 1</title><g stroke="null"><path fill="#00e8ff" stroke="null" d="m156.299,258.01887l37.125,-111.375l167.0625,167.0625l-55.6875,92.8125l-74.25,-74.25l-37.125,0"/><path fill="#283198" stroke="null" d="m230.549,332.26887l0,-148.5l74.25,-74.25l0,148.5m-222.75,74.25l74.25,74.25l37.125,-74.25l-37.125,-74.25l-37.125,0"/><path fill="#324fff" stroke="null" d="m156.299,258.01887l0,-148.5l74.25,-74.25l0,148.5m74.25,222.75l0,-148.5l74.25,-74.25l0,148.5m-297,0l0,-148.5l74.25,74.25"/><path fill="#0ff" stroke="null" d="m156.299,406.51887l0,-148.5l74.25,74.25"/></g></g></svg>